<svg width="40" height="40" viewBox="0 0 40 40" fill="none" xmlns="http://www.w3.org/2000/svg">
<path d="M31.6667 28.7458C31.6667 30.5662 30.0454 32.2052 28.4494 32.8583C24.768 34.3899 20.5654 32.0866 17.6206 29.9458C14.7139 27.8258 12.1418 25.2659 10.0217 22.3583C7.89704 19.409 5.6391 15.2859 7.11736 11.5958C7.75489 9.97789 9.317 8.33334 11.1609 8.33334C13.848 8.33334 17.9579 14.434 15.6301 16.7583C15.0144 17.3974 14.2982 17.8309 14.6161 18.7833C15.3491 20.1252 16.5338 21.2778 17.5956 22.3583C18.6882 23.4291 19.8339 24.6232 21.201 25.3458C22.13 25.7169 22.5962 24.9448 23.204 24.3458C25.296 22.257 31.6667 25.8077 31.6667 28.7458Z" stroke="#27929D" stroke-width="1.66667" stroke-miterlimit="10"/>
<path d="M21.6667 13.3333C21.6667 10.1117 24.2784 7.5 27.5 7.5V7.5C30.7217 7.5 33.3334 10.1117 33.3334 13.3333V13.3333C33.3334 16.555 30.7217 19.1667 27.5 19.1667H22.2222C21.9154 19.1667 21.6667 18.9179 21.6667 18.6111V13.3333Z" stroke="#9CD1D7" stroke-width="1.66667"/>
<path d="M27.5 10.8333V15.8333M25 13.3333L30 13.3333" stroke="#9CD1D7" stroke-width="1.66667" stroke-linecap="round"/>
</svg>
