<svg width="40" height="40" viewBox="0 0 40 40" fill="none" xmlns="http://www.w3.org/2000/svg">
<path d="M8.07309 23.0111L21.0943 8.04838C23.2517 5.56927 27.0104 5.30849 29.4895 7.46592C31.9686 9.62334 32.2294 13.382 30.0719 15.8611L28.1203 18.1038C27.1565 17.7144 26.1033 17.5 25.0001 17.5C20.3977 17.5 16.6667 21.2309 16.6667 25.8333M8.07309 23.0111C5.91567 25.4902 6.17645 29.2489 8.65556 31.4063C11.7283 34.0804 15.4208 32.6968 17.7761 29.9904C17.0704 28.7668 16.6667 27.3472 16.6667 25.8333M8.07309 23.0111L15.2348 14.7816M16.6667 25.8333C16.6667 23.4911 17.633 21.3745 19.1887 19.8606" stroke="#F5AB54" stroke-width="1.66667"/>
<path opacity="0.5" d="M15.2347 14.7817C16.5445 17.0842 17.7107 18.6427 19.1887 19.8607" stroke="#F5AB54" stroke-width="1.66667"/>
<path d="M26.6006 9.14281C24.4532 8.58883 23.1511 10.0851 22.5001 10.8332" stroke="#F5AB54" stroke-width="1.66667" stroke-linecap="round"/>
<path d="M33.3333 25.8333C33.3333 30.4357 29.6023 34.1667 25 34.1667C20.3976 34.1667 16.6666 30.4357 16.6666 25.8333C16.6666 21.231 20.3976 17.5 25 17.5C29.6023 17.5 33.3333 21.231 33.3333 25.8333Z" stroke="#F5AB54" stroke-width="1.66667"/>
<path opacity="0.5" d="M19.3655 27.3431L30.6346 24.3236" stroke="#F5AB54" stroke-width="1.66667" stroke-linecap="round"/>
</svg>
