<svg width="31" height="30" viewBox="0 0 31 30" fill="none" xmlns="http://www.w3.org/2000/svg">
<path opacity="0.5" d="M4.25 12.5C4.25 7.78625 4.25 5.42875 5.715 3.965C7.18 2.50125 9.53625 2.5 14.25 2.5H16.75C21.4637 2.5 23.8212 2.5 25.285 3.965C26.7487 5.43 26.75 7.78625 26.75 12.5V17.5C26.75 22.2137 26.75 24.5712 25.285 26.035C23.82 27.4987 21.4637 27.5 16.75 27.5H14.25C9.53625 27.5 7.17875 27.5 5.715 26.035C4.25125 24.57 4.25 22.2137 4.25 17.5V12.5Z" fill="#D0CCEC"/>
<path fill-rule="evenodd" clip-rule="evenodd" d="M9.5625 12.5C9.5625 12.2514 9.66127 12.0129 9.83709 11.8371C10.0129 11.6613 10.2514 11.5625 10.5 11.5625H20.5C20.7486 11.5625 20.9871 11.6613 21.1629 11.8371C21.3387 12.0129 21.4375 12.2514 21.4375 12.5C21.4375 12.7486 21.3387 12.9871 21.1629 13.1629C20.9871 13.3387 20.7486 13.4375 20.5 13.4375H10.5C10.2514 13.4375 10.0129 13.3387 9.83709 13.1629C9.66127 12.9871 9.5625 12.7486 9.5625 12.5ZM9.5625 17.5C9.5625 17.2514 9.66127 17.0129 9.83709 16.8371C10.0129 16.6613 10.2514 16.5625 10.5 16.5625H16.75C16.9986 16.5625 17.2371 16.6613 17.4129 16.8371C17.5887 17.0129 17.6875 17.2514 17.6875 17.5C17.6875 17.7486 17.5887 17.9871 17.4129 18.1629C17.2371 18.3387 16.9986 18.4375 16.75 18.4375H10.5C10.2514 18.4375 10.0129 18.3387 9.83709 18.1629C9.66127 17.9871 9.5625 17.7486 9.5625 17.5Z" fill="#5A46E6"/>
</svg>
