<svg width="25" height="25" viewBox="0 0 25 25" fill="none" xmlns="http://www.w3.org/2000/svg">
<path d="M9.83331 9.5C9.83331 7.84315 11.1765 6.5 12.8333 6.5C14.4902 6.5 15.8333 7.84315 15.8333 9.5C15.8333 10.813 14.9898 11.9289 13.8152 12.3356C13.2933 12.5163 12.8333 12.9477 12.8333 13.5V14.5M6.83331 22.5H18.8333C21.0425 22.5 22.8333 20.7091 22.8333 18.5V6.5C22.8333 4.29086 21.0425 2.5 18.8333 2.5H6.83331C4.62417 2.5 2.83331 4.29086 2.83331 6.5V18.5C2.83331 20.7091 4.62417 22.5 6.83331 22.5Z" stroke="#82808D" stroke-width="1.5" stroke-linecap="round" stroke-linejoin="round"/>
<circle cx="12.8333" cy="17.5" r="1" fill="#82808D"/>
</svg>
