<svg width="31" height="30" viewBox="0 0 31 30" fill="none" xmlns="http://www.w3.org/2000/svg">
<path d="M26.275 10.875C24.975 5.0875 19.925 2.5 15.5 2.5C15.5 2.5 15.5 2.5 15.4875 2.5C11.075 2.5 6.03749 5.0875 4.72499 10.8625C3.24999 17.3125 7.19999 22.775 10.775 26.225C12.1 27.5 13.8 28.1375 15.5 28.1375C17.2 28.1375 18.9 27.5 20.2125 26.225C23.7875 22.775 27.7375 17.325 26.275 10.875Z" fill="#DFDDED"/>
<path d="M13.9375 17.1875C13.7 17.1875 13.4625 17.1 13.275 16.9125L11.4 15.0375C11.0375 14.675 11.0375 14.075 11.4 13.7125C11.7625 13.35 12.3625 13.35 12.725 13.7125L13.9375 14.925L18.275 10.5875C18.6375 10.225 19.2375 10.225 19.6 10.5875C19.9625 10.95 19.9625 11.55 19.6 11.9125L14.6 16.9125C14.4125 17.1 14.175 17.1875 13.9375 17.1875Z" fill="#5A46E6"/>
</svg>
