<svg width="155" height="60" viewBox="0 0 155 60" fill="none" xmlns="http://www.w3.org/2000/svg">
<g clip-path="url(#clip0_125_1091)">
<path d="M155 16.7984V45.8669L141.252 59.6748H0V22.1552L22.0571 0H138.274C147.512 0 155 7.52082 155 16.7984Z" fill="#1ACFC5"/>
<path d="M125.741 37.8309H102.271V23.508C103.587 22.5487 105.178 22.0208 106.826 22.0208H114.525C122.51 22.0208 127.243 24.0585 127.243 31.6063C127.243 34.8364 125.741 37.8309 125.741 37.8309ZM122.392 15.9542H107.832L102.271 21.5545V10.0363L95.0749 15.2749V37.8309H93.5243C91.8092 37.8309 90.4104 36.488 90.3036 34.7928V31.4793C90.3036 21.3368 86.2337 16.3081 78.7185 16.3081C72.0653 16.3081 67.271 21.9867 61.1074 28.177V33.6021C61.1074 41.6216 67.2884 44.3009 71.281 44.3009C76.4524 44.3009 80.6748 39.9705 81.8491 38.0833L81.4101 37.5174C76.9426 40.0812 68.2184 38.5554 68.2184 27.5378V23.8865C69.731 23.2239 71.3645 22.7828 72.9858 22.7828C81.067 22.7828 83.0657 26.7618 83.0657 34.1327V37.0313V39.3129C83.0657 45.3276 79.1789 50.2809 75.4228 52.3465L75.8499 52.8575C82.5761 50.9917 86.7314 46.0573 88.7683 41.3275C90.4939 42.9224 92.7964 43.8975 95.3262 43.8975H120.866C120.866 43.8975 134.38 36.2051 134.38 26.4642C134.38 19.487 128.264 15.9542 122.392 15.9542Z" fill="white"/>
<path d="M62.1398 9.66113L55.6672 14.3975V18.5651H44.5988L40.1957 24.0206H40.3999H42.6613C48.8846 24.0206 50.3879 27.9194 50.3879 31.6821C50.3879 35.3801 49.0024 37.831 49.0024 37.831H37.2007C31.0948 37.831 27.8238 36.9133 27.8238 29.3639V23.5775L20.6279 29.0208C20.6279 30.1679 20.6564 30.4378 20.6279 31.6645C20.3313 44.5294 28.5765 43.8975 36.7748 43.8975H44.5403C44.5403 43.8975 58.0542 38.2106 58.0542 30.1911C58.0542 26.7859 55.84 24.6197 52.7983 23.4329C53.6396 23.1017 54.4293 22.6359 55.1324 22.0443L60.7739 17.2987C61.6395 16.5704 62.1398 15.4947 62.1398 14.3606V9.66113Z" fill="white"/>
<path d="M56.8697 40.8053C54.6972 40.8053 52.936 42.5741 52.936 44.7559C52.936 46.938 54.6972 48.7069 56.8697 48.7069C59.0423 48.7069 60.8035 46.938 60.8035 44.7559C60.8035 42.5741 59.0423 40.8053 56.8697 40.8053Z" fill="white"/>
</g>
<defs>
<clipPath id="clip0_125_1091">
<rect width="155" height="59.7396" fill="white"/>
</clipPath>
</defs>
</svg>
