<svg width="108" height="43" viewBox="0 0 108 43" fill="none" xmlns="http://www.w3.org/2000/svg">
<g clip-path="url(#clip0_54_9766)">
<path d="M108 12.4316V32.5982L98.4208 42.1775H0V16.1479L15.3688 0.777496H96.3459C102.782 0.777496 108 5.99515 108 12.4316Z" fill="#5A46E6"/>
<path d="M87.6133 27.0231H71.2596V17.0864C72.1765 16.4209 73.2854 16.0546 74.4335 16.0546H79.7981C85.3617 16.0546 88.6596 17.4684 88.6596 22.7047C88.6596 24.9456 87.6133 27.0231 87.6133 27.0231ZM85.2799 11.8459H75.1344L71.2596 15.7312V7.74026L66.2457 11.3746V27.0231H65.1653C63.9703 27.0231 62.9956 26.0915 62.9212 24.9154V22.6166C62.9212 15.5801 60.0854 12.0914 54.849 12.0914C50.2133 12.0914 46.8727 16.031 42.5781 20.3256V24.0893C42.5781 29.6529 46.8848 31.5117 49.6668 31.5117C53.2701 31.5117 56.2121 28.5074 57.0304 27.1982L56.7244 26.8056C53.6116 28.5843 47.5328 27.5257 47.5328 19.8822V17.349C48.5868 16.8893 49.725 16.5833 50.8546 16.5833C56.4854 16.5833 57.878 19.3438 57.878 24.4574V26.4684V28.0513C57.878 32.224 55.1698 35.6604 52.5527 37.0934L52.8502 37.448C57.5369 36.1536 60.4322 32.7302 61.8515 29.4489C63.0538 30.5554 64.6581 31.2319 66.4208 31.2319H84.2164C84.2164 31.2319 93.6325 25.8952 93.6325 19.1374C93.6325 14.2968 89.3708 11.8459 85.2799 11.8459Z" fill="white"/>
<path d="M43.2973 7.47999L38.7874 10.7659V13.6572H31.0752L28.0072 17.442H28.1495H29.7252C34.0614 17.442 35.1089 20.1469 35.1089 22.7572C35.1089 25.3228 34.1435 27.0231 34.1435 27.0231H25.9204C21.666 27.0231 19.3868 26.3865 19.3868 21.149V17.1346L14.3729 20.911C14.3729 21.7068 14.3928 21.8941 14.3729 22.7451C14.1662 31.6702 19.9113 31.2319 25.6237 31.2319H31.0345C31.0345 31.2319 40.4506 27.2865 40.4506 21.7229C40.4506 19.3605 38.9078 17.8577 36.7884 17.0343C37.3746 16.8046 37.9249 16.4814 38.4148 16.071L42.3456 12.7786C42.9488 12.2734 43.2973 11.5271 43.2973 10.7403V7.47999Z" fill="white"/>
<path d="M39.6253 29.0866C38.1116 29.0866 36.8844 30.3137 36.8844 31.8274C36.8844 33.3413 38.1116 34.5684 39.6253 34.5684C41.1391 34.5684 42.3662 33.3413 42.3662 31.8274C42.3662 30.3137 41.1391 29.0866 39.6253 29.0866Z" fill="white"/>
</g>
<defs>
<clipPath id="clip0_54_9766">
<rect width="108" height="41.445" fill="white" transform="translate(0 0.777496)"/>
</clipPath>
</defs>
</svg>
