<svg width="31" height="30" viewBox="0 0 31 30" fill="none" xmlns="http://www.w3.org/2000/svg">
<path d="M16.3775 2.7439L25.1275 6.02515C25.6041 6.20382 26.0149 6.52372 26.3048 6.94209C26.5947 7.36047 26.7501 7.85738 26.75 8.3664V15.0702C26.75 17.1594 26.1683 19.2075 25.0699 20.9847C23.9715 22.762 22.4 24.1983 20.5312 25.1327L16.3387 27.2276C16.0783 27.3579 15.7912 27.4257 15.5 27.4257C15.2088 27.4257 14.9217 27.3579 14.6613 27.2276L10.4688 25.1314C8.60005 24.197 7.02846 22.7607 5.93009 20.9835C4.83171 19.2062 4.24996 17.1582 4.25 15.0689V8.36765C4.24968 7.85842 4.40488 7.36123 4.69484 6.94261C4.98479 6.52398 5.39567 6.20389 5.8725 6.02515L14.6225 2.7439C15.1883 2.53182 15.8117 2.53182 16.3775 2.7439ZM15.5 10.0002C15.1938 10.0002 14.8983 10.1126 14.6695 10.316C14.4407 10.5195 14.2946 10.7998 14.2587 11.1039L14.25 11.2502V13.7502H11.75C11.4314 13.7505 11.125 13.8725 10.8933 14.0912C10.6616 14.3099 10.5222 14.6088 10.5035 14.9269C10.4849 15.2449 10.5883 15.5581 10.7928 15.8024C10.9973 16.0468 11.2874 16.2038 11.6038 16.2414L11.75 16.2502H14.25V18.7502C14.2504 19.0688 14.3723 19.3752 14.5911 19.6069C14.8098 19.8385 15.1087 19.9779 15.4267 19.9966C15.7448 20.0153 16.058 19.9118 16.3023 19.7073C16.5466 19.5028 16.7036 19.2128 16.7413 18.8964L16.75 18.7502V16.2502H19.25C19.5686 16.2498 19.875 16.1278 20.1067 15.9091C20.3384 15.6904 20.4778 15.3915 20.4965 15.0734C20.5151 14.7554 20.4117 14.4422 20.2072 14.1979C20.0027 13.9535 19.7126 13.7965 19.3962 13.7589L19.25 13.7502H16.75V11.2502C16.75 10.9186 16.6183 10.6007 16.3839 10.3663C16.1495 10.1318 15.8315 10.0002 15.5 10.0002Z" fill="#5A46E6" fill-opacity="0.2"/>
<path d="M15.5 11.25V18.75" stroke="#5A46E6" stroke-width="2.5" stroke-linecap="round"/>
<path d="M11.75 15H19.25" stroke="#5A46E6" stroke-width="2.5" stroke-linecap="round"/>
</svg>
