<svg width="25" height="25" viewBox="0 0 25 25" fill="none" xmlns="http://www.w3.org/2000/svg">
<path d="M5.5 10.5H7.5C9.5 10.5 10.5 9.5 10.5 7.5V5.5C10.5 3.5 9.5 2.5 7.5 2.5H5.5C3.5 2.5 2.5 3.5 2.5 5.5V7.5C2.5 9.5 3.5 10.5 5.5 10.5Z" stroke="#82808D" stroke-width="1.5" stroke-miterlimit="10" stroke-linecap="round" stroke-linejoin="round"/>
<path d="M17.5 10.5H19.5C21.5 10.5 22.5 9.5 22.5 7.5V5.5C22.5 3.5 21.5 2.5 19.5 2.5H17.5C15.5 2.5 14.5 3.5 14.5 5.5V7.5C14.5 9.5 15.5 10.5 17.5 10.5Z" stroke="#82808D" stroke-width="1.5" stroke-miterlimit="10" stroke-linecap="round" stroke-linejoin="round"/>
<path d="M17.5 22.5H19.5C21.5 22.5 22.5 21.5 22.5 19.5V17.5C22.5 15.5 21.5 14.5 19.5 14.5H17.5C15.5 14.5 14.5 15.5 14.5 17.5V19.5C14.5 21.5 15.5 22.5 17.5 22.5Z" stroke="#82808D" stroke-width="1.5" stroke-miterlimit="10" stroke-linecap="round" stroke-linejoin="round"/>
<path d="M5.5 22.5H7.5C9.5 22.5 10.5 21.5 10.5 19.5V17.5C10.5 15.5 9.5 14.5 7.5 14.5H5.5C3.5 14.5 2.5 15.5 2.5 17.5V19.5C2.5 21.5 3.5 22.5 5.5 22.5Z" stroke="#82808D" stroke-width="1.5" stroke-miterlimit="10" stroke-linecap="round" stroke-linejoin="round"/>
</svg>
