<svg width="25" height="25" viewBox="0 0 25 25" fill="none" xmlns="http://www.w3.org/2000/svg">
<path d="M10.6708 8.54015C10.6042 8.70095 10.6042 8.9048 10.6042 9.3125V10.1455C10.6042 10.1653 10.6042 10.1752 10.598 10.1813C10.5919 10.1875 10.582 10.1875 10.5622 10.1875H9.72919C9.32149 10.1875 9.11764 10.1875 8.95684 10.2541C8.74244 10.3429 8.5721 10.5133 8.48329 10.7277C8.41669 10.8885 8.41669 11.0923 8.41669 11.5C8.41669 11.9077 8.41669 12.1115 8.48329 12.2723C8.5721 12.4867 8.74244 12.6571 8.95684 12.7459C9.11764 12.8125 9.32149 12.8125 9.72919 12.8125H10.5622C10.582 12.8125 10.5919 12.8125 10.598 12.8187C10.6042 12.8248 10.6042 12.8347 10.6042 12.8545V13.6875C10.6042 14.0952 10.6042 14.299 10.6708 14.4598C10.7596 14.6742 10.9299 14.8446 11.1443 14.9334C11.3051 15 11.509 15 11.9167 15C12.3244 15 12.5282 15 12.689 14.9334C12.9034 14.8446 13.0738 14.6742 13.1626 14.4598C13.2292 14.299 13.2292 14.0952 13.2292 13.6875V12.8545C13.2292 12.8347 13.2292 12.8248 13.2353 12.8187C13.2415 12.8125 13.2514 12.8125 13.2712 12.8125H14.1042C14.5119 12.8125 14.7157 12.8125 14.8765 12.7459C15.0909 12.6571 15.2613 12.4867 15.3501 12.2723C15.4167 12.1115 15.4167 11.9077 15.4167 11.5C15.4167 11.0923 15.4167 10.8885 15.3501 10.7277C15.2613 10.5133 15.0909 10.3429 14.8765 10.2541C14.7157 10.1875 14.5119 10.1875 14.1042 10.1875H13.2712C13.2514 10.1875 13.2415 10.1875 13.2353 10.1813C13.2292 10.1752 13.2292 10.1653 13.2292 10.1455V9.3125C13.2292 8.9048 13.2292 8.70095 13.1626 8.54015C13.0738 8.32575 12.9034 8.15541 12.689 8.06661C12.5282 8 12.3244 8 11.9167 8C11.509 8 11.3051 8 11.1443 8.06661C10.9299 8.15541 10.7596 8.32575 10.6708 8.54015Z" stroke="#82808D"/>
<path d="M10.4144 2.2325L5.48238 4.1125C4.34576 4.5425 3.41669 5.9025 3.41669 7.1225V14.5525C3.41669 15.7325 4.18762 17.2825 5.12657 17.9925L9.37657 21.2025C10.7702 22.2625 13.0632 22.2625 14.4568 21.2025L18.7068 17.9925C19.6458 17.2825 20.4167 15.7325 20.4167 14.5525V7.1225C20.4167 5.8925 19.4876 4.5325 18.351 4.1025L13.419 2.2325C12.5789 1.9225 11.2347 1.9225 10.4144 2.2325Z" stroke="#82808D" stroke-width="1.5" stroke-linecap="round" stroke-linejoin="round"/>
</svg>
