<svg width="73" height="75" viewBox="0 0 73 75" fill="none" xmlns="http://www.w3.org/2000/svg">
<path d="M29.5 25.5H31.5C33.5 25.5 34.5 24.5 34.5 22.5V20.5C34.5 18.5 33.5 17.5 31.5 17.5H29.5C27.5 17.5 26.5 18.5 26.5 20.5V22.5C26.5 24.5 27.5 25.5 29.5 25.5Z" stroke="#82808D" stroke-width="1.5" stroke-miterlimit="10" stroke-linecap="round" stroke-linejoin="round"/>
<path d="M41.5 25.5H43.5C45.5 25.5 46.5 24.5 46.5 22.5V20.5C46.5 18.5 45.5 17.5 43.5 17.5H41.5C39.5 17.5 38.5 18.5 38.5 20.5V22.5C38.5 24.5 39.5 25.5 41.5 25.5Z" stroke="#82808D" stroke-width="1.5" stroke-miterlimit="10" stroke-linecap="round" stroke-linejoin="round"/>
<path d="M41.5 37.5H43.5C45.5 37.5 46.5 36.5 46.5 34.5V32.5C46.5 30.5 45.5 29.5 43.5 29.5H41.5C39.5 29.5 38.5 30.5 38.5 32.5V34.5C38.5 36.5 39.5 37.5 41.5 37.5Z" stroke="#82808D" stroke-width="1.5" stroke-miterlimit="10" stroke-linecap="round" stroke-linejoin="round"/>
<path d="M29.5 37.5H31.5C33.5 37.5 34.5 36.5 34.5 34.5V32.5C34.5 30.5 33.5 29.5 31.5 29.5H29.5C27.5 29.5 26.5 30.5 26.5 32.5V34.5C26.5 36.5 27.5 37.5 29.5 37.5Z" stroke="#82808D" stroke-width="1.5" stroke-miterlimit="10" stroke-linecap="round" stroke-linejoin="round"/>
<path d="M21.12 54.5L21.624 53.528H23.76C24.08 53.528 24.304 53.448 24.432 53.288C24.568 53.128 24.636 52.852 24.636 52.46C24.636 51.396 24.144 50.596 23.16 50.06L23.688 49.172C24.944 49.908 25.6 50.924 25.656 52.22C25.672 52.684 25.776 53.02 25.968 53.228C26.168 53.428 26.484 53.528 26.916 53.528H27.624V54.5H26.832C26.168 54.5 25.648 54.288 25.272 53.864C25.008 54.288 24.564 54.5 23.94 54.5H21.12ZM27.0095 54.5V53.528H27.8015C28.5855 53.528 28.9775 53.128 28.9775 52.328V49.844L30.0095 49.292V52.364C30.0095 53.044 29.8055 53.58 29.3975 53.972C29.0215 54.324 28.5295 54.5 27.9215 54.5H27.0095ZM27.6455 56.888C27.2535 56.888 27.0575 56.688 27.0575 56.288C27.0575 55.896 27.2535 55.7 27.6455 55.7C28.0295 55.7 28.2215 55.896 28.2215 56.288C28.2215 56.688 28.0295 56.888 27.6455 56.888ZM29.1695 56.888C28.7775 56.888 28.5815 56.688 28.5815 56.288C28.5815 55.896 28.7775 55.7 29.1695 55.7C29.5535 55.7 29.7455 55.896 29.7455 56.288C29.7455 56.688 29.5535 56.888 29.1695 56.888ZM34.1295 47.84C33.7375 47.84 33.5415 47.64 33.5415 47.24C33.5415 46.848 33.7375 46.652 34.1295 46.652C34.5135 46.652 34.7055 46.848 34.7055 47.24C34.7055 47.64 34.5135 47.84 34.1295 47.84ZM35.9895 53.528H36.7815V54.5H35.8695C35.4615 54.5 35.1095 54.42 34.8135 54.26C34.7415 55.052 34.4655 55.684 33.9855 56.156C33.5455 56.588 32.9935 56.804 32.3295 56.804C31.8495 56.804 31.3815 56.684 30.9255 56.444V55.544C31.3335 55.768 31.7415 55.88 32.1495 55.88C32.6615 55.88 33.0615 55.708 33.3495 55.364C33.6375 55.02 33.7815 54.544 33.7815 53.936V49.844L34.8135 49.292V49.304L34.8255 49.292V52.568C34.8975 53.208 35.2855 53.528 35.9895 53.528ZM43.8907 53.528H44.6947V54.5H43.7827C43.1187 54.5 42.5947 54.288 42.2107 53.864C41.8027 54.448 41.2067 54.74 40.4227 54.74C39.6387 54.74 39.0467 54.452 38.6467 53.876C38.2707 54.292 37.7467 54.5 37.0747 54.5H36.1627V53.528H36.9547C37.7387 53.528 38.1307 53.128 38.1307 52.328V51.932C38.1307 51.004 38.3587 50.292 38.8147 49.796C39.2147 49.356 39.7507 49.136 40.4227 49.136C41.1907 49.136 41.7827 49.42 42.1987 49.988C42.5507 50.476 42.7267 51.124 42.7267 51.932V52.328C42.7267 53.128 43.1147 53.528 43.8907 53.528ZM40.4227 53.768C40.8147 53.768 41.1227 53.604 41.3467 53.276C41.5787 52.948 41.6947 52.496 41.6947 51.92C41.6947 50.704 41.2707 50.096 40.4227 50.096C39.5827 50.096 39.1627 50.704 39.1627 51.92C39.1627 53.152 39.5827 53.768 40.4227 53.768ZM44.0791 54.5V53.528H44.7151C45.5471 53.528 45.9631 53.092 45.9631 52.22V47.312L47.0071 46.76V52.232C47.0071 52.944 46.7951 53.508 46.3711 53.924C45.9711 54.308 45.4471 54.5 44.7991 54.5H44.0791ZM49.2636 54.5V47.312L50.2956 46.76V54.5H49.2636Z" fill="#82808D"/>
</svg>
