<svg width="31" height="30" viewBox="0 0 31 30" fill="none" xmlns="http://www.w3.org/2000/svg">
<path d="M12.8534 2.75894C13.4479 2.68887 14.047 2.84594 14.5308 3.1987C15.0145 3.55147 15.3471 4.0739 15.4621 4.66144L15.4934 4.87019L15.4996 5.00019V13.7502C15.4997 14.0564 15.6121 14.3519 15.8155 14.5807C16.019 14.8095 16.2993 14.9556 16.6034 14.9914L16.7496 15.0002H25.2496C25.9127 15.0002 26.5485 15.2636 27.0174 15.7324C27.4862 16.2013 27.7496 16.8372 27.7496 17.5002C27.7496 17.5953 27.7387 17.6901 27.7171 17.7827C27.2169 19.941 26.152 21.9276 24.6315 23.539C23.111 25.1504 21.1895 26.3288 19.0638 26.9534C16.9381 27.5779 14.6846 27.6263 12.5341 27.0936C10.3836 26.5608 8.41328 25.466 6.825 23.9214C5.23672 22.3767 4.08752 20.4377 3.49509 18.3028C2.90266 16.168 2.88829 13.914 3.45344 11.7717C4.0186 9.6295 5.14298 7.67596 6.71144 6.11117C8.27989 4.54639 10.2361 3.42658 12.3796 2.86644L12.7171 2.78269L12.8534 2.75894Z" fill="#D0CCEC"/>
<path d="M18.0018 4.37503V11.25C18.0018 11.5816 18.1335 11.8995 18.3679 12.1339C18.6024 12.3683 18.9203 12.5 19.2518 12.5H26.1268C26.3266 12.5 26.5235 12.452 26.7009 12.3602C26.8784 12.2684 27.0312 12.1354 27.1467 11.9723C27.2621 11.8092 27.3368 11.6209 27.3645 11.423C27.3921 11.2251 27.3719 11.0235 27.3056 10.835C26.6848 9.0717 25.6763 7.47007 24.3546 6.14807C23.0328 4.82608 21.4313 3.81739 19.6681 3.19628C19.4795 3.1297 19.2778 3.10932 19.0797 3.13684C18.8817 3.16437 18.6932 3.239 18.5299 3.35447C18.3667 3.46995 18.2335 3.62289 18.1417 3.80047C18.0498 3.97805 18.0018 4.17508 18.0018 4.37503Z" fill="#5A46E6"/>
</svg>
